<?xml version="1.0" encoding="UTF-8"?>
<svg width="206px" height="100px" viewBox="0 0 206 100" version="1.1" xmlns="http://www.w3.org/2000/svg" xmlns:xlink="http://www.w3.org/1999/xlink">
    <!-- Generator: Sketch 49.3 (51167) - http://www.bohemiancoding.com/sketch -->
    <title>abhi</title>
    <desc>Created with Sketch.</desc>
    <defs></defs>
    <g id="Page-1" stroke="none" stroke-width="1" fill="none" fill-rule="evenodd">
        <g id="Untitled" fill="#9D9D9D" fill-rule="nonzero">
            <path d="M54.8317048,95.1217536 C56.516279,95.4727066 57.7972574,95.2972301 58.6746398,94.5953241 C59.5520222,93.8934182 60.2714758,92.8581069 60.8330006,91.4893903 C61.3945253,90.1206738 61.8507642,88.5062901 62.2017172,86.6462393 C62.5526701,84.7861886 63.0440043,82.8383996 63.6757196,80.8028724 C63.8161008,80.2413476 63.9915773,79.521894 64.2021491,78.6445116 C64.4127209,77.7671292 64.605745,76.9072944 64.7812215,76.0650073 C64.956698,75.2227202 65.1321745,74.5208142 65.307651,73.9592895 C65.4831274,73.3977647 65.5708657,73.1520976 65.5708657,73.2222882 C65.7814375,72.3800011 65.9920092,71.6079046 66.202581,70.9059986 C66.4131528,70.2040927 66.6939152,69.4670914 67.0448682,68.6949949 C67.2554399,68.0632796 67.4835594,67.2385401 67.7292265,66.2207765 C67.9748935,65.2030128 68.203013,64.3782734 68.4135847,63.746558 C68.5539659,63.3254145 68.6066089,63.0271044 68.5715136,62.8516279 C68.5364183,62.6761515 68.799633,62.5533179 69.3611578,62.4831273 C69.7823013,62.4129367 70.2560878,62.3251985 70.7825173,62.2199126 L72.0985909,61.9566979 C72.8706875,61.8163167 73.3795693,61.7812214 73.6252364,61.851412 C73.8709034,61.9216026 74.34469,61.8865073 75.0465959,61.7461261 C76.5205984,61.4653637 77.5734573,61.3600778 78.2051726,61.4302684 C78.836888,61.500459 79.5738892,61.3249825 80.4161763,60.903839 L81.679607,60.2721236 L82.3113224,59.6404083 C82.5218942,59.4298365 82.7324659,59.0437882 82.9430377,58.4822635 C83.0834189,58.2015011 83.1185142,57.5346904 83.0483236,56.4818315 C82.978133,55.4289726 82.7675612,54.762162 82.4166083,54.4813996 C82.0656553,54.1304466 81.7848929,53.8321366 81.5743211,53.5864695 C81.3637494,53.3408024 81.082987,53.2179689 80.732034,53.2179689 C80.381081,53.2179689 79.9774851,53.1828736 79.5212463,53.112683 C79.0650074,53.0424924 78.5561256,53.0775877 77.9946008,53.2179689 C77.5032667,53.3583501 77.1347661,53.4285407 76.889099,53.4285407 L75.1518818,53.4285407 C74.8009288,53.4285407 74.4675235,53.4811836 74.1516658,53.5864695 C73.8358081,53.6917554 73.4322122,53.6742078 72.9408781,53.5338266 L73.993737,50.9016793 C74.34469,49.9892016 74.7658335,48.7608662 75.2571677,47.2166731 C75.7485018,45.67248 76.1696454,44.3388587 76.5205984,43.2158092 L77.5734573,39.8466607 C77.9244103,38.7236112 78.3806491,37.635657 78.9421739,36.5827981 C79.5036986,34.9684144 79.9950328,33.5996978 80.4161763,32.4766483 C80.8373199,31.3535988 81.2584635,30.1603587 81.679607,28.896928 C81.8199882,27.8440691 82.1533935,26.7736626 82.679823,25.6857084 C83.2062525,24.5977541 83.5747531,23.5273476 83.7853249,22.4744887 C83.9958966,21.9831545 84.2240161,21.4742727 84.4696832,20.9478433 C84.7153502,20.4214138 84.9083744,19.8774367 85.0487556,19.3159119 C85.1891367,18.7543872 85.3997085,18.2455054 85.6804709,17.7892665 C85.9612333,17.3330277 86.2419957,16.8592411 86.522758,16.367907 C86.7333298,15.8063822 86.9088063,15.2097622 87.0491875,14.5780468 C87.1895687,13.9463315 87.4001405,13.419902 87.6809028,12.9987585 C87.821284,12.5776149 87.873927,12.1564713 87.8388317,11.7353278 C87.8037364,11.3141842 87.8563793,10.9281359 87.9967605,10.577183 C88.3477135,9.52432406 88.470547,8.4890128 88.3652611,7.47124918 C88.2599752,6.45348557 88.1020464,5.4532696 87.8914746,4.47060128 C87.8914746,4.33022009 87.873927,4.20738655 87.8388317,4.10210066 C87.8037364,3.99681477 87.7510934,3.87398123 87.6809028,3.73360004 C87.4001405,3.52302826 87.1544734,3.27736118 86.9439016,2.99659881 C86.7333298,2.71583643 86.4876627,2.47016935 86.2069004,2.25959757 C85.9963286,1.9086446 85.627828,1.64542987 85.1013985,1.46995338 C84.574969,1.2944769 84.2415637,1.13654806 84.1011825,0.996166874 C83.0483236,0.575023309 81.8726312,0.276713284 80.5741052,0.101236799 C79.2755792,-0.0742396866 78.0998867,-0.021596741 77.0470278,0.259165635 C75.6432159,0.750499794 74.4850711,1.36466749 73.5725934,2.10166873 C72.6601157,2.83866997 71.993305,3.90907653 71.5721615,5.31288841 L70.6245885,7.62917802 C69.4313484,9.24356168 68.3433942,10.8228501 67.3607258,12.3670431 C66.3780575,13.9112362 65.3953892,15.4905246 64.4127209,17.1049082 C63.6406243,18.2981483 62.8860755,19.4562931 62.1490742,20.5793426 C61.412073,21.7023921 60.6575241,22.8956322 59.8854276,24.1590629 C59.113331,25.1417313 58.4114251,26.1243996 57.7797097,27.1070679 C57.1479944,28.0897362 56.4460884,29.0724045 55.6739919,30.0550728 L53.4629882,33.0030778 C52.9014634,33.7751743 52.4276769,34.5472709 52.0416287,35.3193674 C51.6555804,36.0914639 51.1817939,36.8284652 50.6202691,37.5303711 L47.4616924,42.3735221 C46.9703582,42.9350469 46.4965717,43.4965716 46.0403329,44.0580964 C45.584094,44.6196211 45.1804981,45.1109553 44.8295451,45.5320988 C43.7064956,47.2868637 42.6536367,48.918795 41.6709684,50.4278928 C40.6883001,51.9369906 39.5652506,53.6040172 38.3018199,55.4289726 C38.1614387,55.709735 37.8104857,55.9203068 37.248961,56.060688 C35.0730525,56.3414503 33.055073,56.6397604 31.1950222,56.955618 C29.3349715,57.2714757 27.2818966,57.4995951 25.0357976,57.6399763 C24.1233199,57.7803575 23.2108421,57.8856434 22.2983644,57.955834 C21.3858867,58.0260246 20.473409,58.0611199 19.5609312,58.0611199 C18.3676911,58.2015011 17.1393557,58.3243346 15.875925,58.4296205 C14.6124944,58.5349064 13.384159,58.6928352 12.1909189,58.903407 C11.6293941,58.903407 11.1380599,58.9209547 10.7169164,58.95605 C10.2957728,58.9911453 9.69915277,58.9735976 8.92705623,58.903407 C8.15495969,58.8332164 7.4355061,58.903407 6.76869546,59.1139788 C6.10188482,59.3245506 5.38243123,59.5351224 4.61033469,59.7456942 C4.11900053,59.8860753 3.61011873,60.1317424 3.08368927,60.4826954 C2.55725981,60.8336484 2.01328271,61.2196966 1.45175796,61.6408402 C1.31137677,61.9917932 1.11835263,62.3602938 0.872685554,62.7463421 C0.627018475,63.1323903 0.469089638,63.4307003 0.398899044,63.6412721 C0.609470826,64.2027969 0.697209069,64.6590357 0.662113772,65.0099887 C0.627018475,65.3609417 0.714756718,65.74699 0.9253285,66.1681335 C0.714756718,66.3085147 0.697209069,66.4839912 0.872685554,66.694563 C1.04816204,66.9051348 1.03061439,67.0806112 0.820042609,67.2209924 C0.820042609,67.4315642 0.890233203,67.6070407 1.03061439,67.7474219 C1.31137677,67.8176125 1.48685325,67.8527078 1.55704385,67.8527078 C1.90799682,67.7825172 2.24140214,67.9228984 2.55725981,68.2738513 C2.87311749,68.6248043 3.17142751,68.8002808 3.45218989,68.8002808 C4.01371464,69.0108526 4.55769175,69.1336861 5.0841212,69.1687814 C5.61055066,69.2038767 6.04924187,69.2214244 6.40019484,69.2214244 C7.59343494,69.0810432 8.76912739,68.7827331 9.9272722,68.3264943 C11.085417,67.8702554 12.1909189,67.642136 13.2437778,67.642136 C14.7879708,67.5017548 16.3146163,67.343826 17.823714,67.1683495 C19.3328118,66.992873 20.7892666,66.8349442 22.1930785,66.694563 C23.5968904,66.5541818 24.8954164,66.3962529 26.0886565,66.2207765 C27.2818966,66.0453 28.510232,65.8873711 29.7736627,65.74699 C29.9140439,65.74699 30.0368774,65.7294423 30.1421633,65.694347 C30.2474492,65.6592517 30.3702827,65.8171805 30.5106639,66.1681335 C30.3702827,66.1681335 30.2649968,66.3085147 30.1948062,66.5892771 C29.7034721,67.1508018 29.1945903,67.940446 28.6681608,68.9582096 C28.1417314,69.9759732 27.6328496,70.7656174 27.1415154,71.3271422 C26.3694189,72.3800011 25.5095841,73.4504077 24.5620111,74.5383619 C23.614438,75.6263161 22.7546033,76.6967226 21.9825067,77.7495815 C22.0526973,77.679391 21.8596732,77.977701 21.4034343,78.6445116 C20.9471955,79.3113223 20.4383137,80.0483235 19.8767889,80.8555153 C19.3152642,81.6627072 18.8063824,82.3997084 18.3501435,83.066519 C17.8939046,83.7333297 17.7359758,84.0316397 17.876357,83.9614491 C17.5955946,84.3124021 17.3674752,84.6282598 17.1919987,84.9090221 C17.0165222,85.1897845 16.7884028,85.5056422 16.5076404,85.8565952 C15.875925,87.0498353 15.0862809,88.1553371 14.1387078,89.1731007 C13.1911348,90.1908644 12.5418718,91.3665568 12.1909189,92.7001781 C12.1207283,93.0511311 11.9978947,93.3494411 11.8224182,93.5951082 C11.6469418,93.8407752 11.4890129,94.0337994 11.3486317,94.1741806 C11.2082505,94.3145618 11.1907029,94.4724906 11.2959888,94.6479671 C11.4012747,94.8234436 11.383727,94.9813724 11.2433458,95.1217536 C10.9625835,95.402516 10.8923929,95.7183736 11.0327741,96.0693266 C11.0327741,96.2097078 11.085417,96.3325413 11.1907029,96.4378272 C11.2959888,96.5431131 11.4188223,96.7361373 11.5592035,97.0168996 C11.6293941,96.8765184 11.7171323,96.8414231 11.8224182,96.9116137 C11.9277041,96.9818043 12.0154424,97.0168996 12.085633,97.0168996 C12.2962047,97.1572808 12.6296101,97.4380432 13.0858489,97.8591868 C13.5420878,98.2803303 13.5947307,98.5610927 13.2437778,98.7014739 C13.1033966,98.8418551 13.0858489,98.947141 13.1911348,99.0173316 C13.2964207,99.0875222 13.384159,99.192808 13.4543496,99.3331892 L13.2437778,99.543761 C13.1735872,99.6139516 13.2788731,99.7192375 13.5596354,99.8596187 C13.9105884,99.7192375 14.1387078,99.6665946 14.2439937,99.7016899 C14.3492796,99.7367852 14.5773991,99.7543328 14.928352,99.7543328 C15.2091144,99.8245234 15.5074244,99.894714 15.8232821,99.9649046 C16.1391398,100.035095 16.4374498,99.9999999 16.7182122,99.8596187 C16.7884028,99.8596187 16.9814269,99.7894281 17.2972846,99.6490469 C17.6131423,99.5086657 17.9289999,99.3331892 18.2448576,99.1226175 C18.5607153,98.9120457 18.8590253,98.7365692 19.1397877,98.596188 L19.5609312,98.3856162 C20.1926466,97.7539009 20.7015284,97.1923761 21.0875767,96.701042 C21.4736249,96.2097078 21.9123161,95.6832783 22.4036503,95.1217536 C22.8949845,94.5602288 23.2810327,94.10399 23.5617951,93.753037 C23.8425575,93.402084 24.0882246,93.0686787 24.2987963,92.752821 C24.5093681,92.4369634 24.7374876,92.103558 24.9831546,91.7526051 C25.2288217,91.4016521 25.5973223,90.9454132 26.0886565,90.3838885 L31.6688087,83.119162 C32.5110959,82.1364937 33.2480971,81.0836348 33.8798124,79.9605853 C34.5115278,78.8375358 35.2836243,77.7495815 36.196102,76.6967226 C37.1787704,75.2929108 38.1614387,73.9241942 39.144107,72.5905729 C40.1267753,71.2569516 41.1094436,69.9584256 42.092112,68.6949949 C42.1623025,68.5546137 42.3202314,68.291399 42.5658985,67.9053507 L43.3028997,66.7472059 C43.5485668,66.3611576 43.8117815,65.992657 44.0925439,65.6417041 C44.3733063,65.2907511 44.583878,65.0801793 44.7242592,65.0099887 C45.0752122,64.6590357 45.4612605,64.5011069 45.882404,64.5362022 C46.3035476,64.5712975 46.7246912,64.5186546 47.1458347,64.3782734 C48.3390748,64.0273204 49.6200532,63.8167486 50.9887698,63.746558 C52.3574863,63.6763674 53.8490365,63.5710815 55.4634201,63.4307003 C55.7441825,63.4307003 56.0249449,63.3780574 56.3057073,63.2727715 C56.5864696,63.1674856 56.8321367,63.2201286 57.0427085,63.4307003 L56.8321367,64.2729875 C56.6917555,64.6239404 56.5864696,65.0099887 56.516279,65.4311323 C56.4460884,65.8522758 56.3408026,66.2032288 56.2004214,66.4839912 C56.270612,66.4138006 56.1828737,66.7647536 55.9372066,67.5368501 C55.6915396,68.3089466 55.4283248,69.1512338 55.1475625,70.0637115 C54.8668001,70.9761892 54.6035854,71.8184763 54.3579183,72.5905729 C54.1122512,73.3626694 53.9894177,73.7136224 53.9894177,73.6434318 C53.7086553,74.4155283 53.5507264,74.8717672 53.5156311,75.0121484 C53.4805358,75.1525296 53.4629882,75.2402678 53.4629882,75.2753631 C53.4629882,75.3104584 53.4454406,75.3981966 53.4103453,75.5385778 C53.37525,75.678959 53.2173211,76.1351979 52.9365587,76.9072944 C52.6557964,77.8197721 52.4276769,78.6796069 52.2522005,79.4867987 C52.076724,80.2939906 51.8135092,81.1538254 51.4625563,82.0663031 C51.3923657,82.4874466 51.2695321,83.0489714 51.0940556,83.7508773 C50.9185792,84.4527833 50.7431027,85.1897845 50.5676262,85.9618811 C50.3921497,86.7339776 50.2868638,87.4709788 50.2517685,88.1728848 C50.2166732,88.8747907 50.2693162,89.4363155 50.4096974,89.857459 C50.4096974,90.559365 50.3570544,91.1910803 50.2517685,91.7526051 C50.1464826,92.3141298 50.3746021,92.805464 50.9361268,93.2266075 C51.2168892,93.8583229 51.7433186,94.3145618 52.5154152,94.5953241 C53.2875117,94.8760865 54.0596082,95.051563 54.8317048,95.1217536 Z M169.69056,58.3334903 C169.709297,58.2800371 169.729529,58.2243423 169.751255,58.1664058 C169.856541,57.8856434 170.08466,57.359214 170.435613,56.5871174 L172.225473,52.5862536 C173.208142,50.1295828 174.067977,48.2344367 174.804978,46.9008154 C175.541979,45.5671941 176.331623,44.3388587 177.17391,43.2158092 C177.314292,42.9350469 177.524863,42.6542845 177.805626,42.3735221 L178.437341,41.7418068 C178.507532,41.6716162 178.647913,41.4610444 178.858485,41.1100914 C179.069056,40.9697102 179.279628,40.881972 179.4902,40.8468767 C179.700772,40.8117814 179.876248,40.7942337 180.016629,40.7942337 L181.016845,40.7942337 C181.192322,40.7942337 181.560822,40.7240431 182.122347,40.583662 C182.40311,40.6538526 182.718967,40.7591384 183.06992,40.8995196 C183.420873,41.0399008 183.736731,41.1451867 184.017493,41.2153773 C184.298256,41.2153773 184.543923,41.3908538 184.754495,41.7418068 C184.894876,42.0927597 185.0879,42.4437127 185.333567,42.7946657 C185.579234,43.1456186 185.807353,43.4965716 186.017925,43.8475246 C186.228497,44.4090493 186.263592,44.9705741 186.123211,45.5320988 C185.98283,46.0936236 185.877544,46.6551483 185.807353,47.2166731 C185.245829,49.6733439 184.421089,52.0422764 183.333135,54.3234708 C182.245181,56.6046651 181.122131,58.8156688 179.963986,60.9564819 C178.805842,63.097295 177.735435,65.2030128 176.752767,67.2736354 C175.770098,69.3442579 175.103288,71.4324281 174.752335,73.5381459 C174.611954,74.2400518 174.734787,74.7664813 175.120835,75.1174343 C175.506884,75.4683872 176.085956,75.5034825 176.858053,75.2227202 C177.419577,74.9419578 177.735435,74.731386 177.805626,74.5910048 C177.875816,74.4506236 178.191674,74.2751471 178.753199,74.0645754 C180.08682,73.2222882 181.560822,72.0290481 183.175206,70.4848551 C184.78959,68.940662 186.158306,67.5719454 187.281356,66.3787053 C187.77269,65.8873711 188.457048,65.097727 189.334431,64.0097727 C190.211813,62.9218185 191.089196,61.7636737 191.966578,60.5353383 C192.84396,59.3070029 193.703795,58.1137628 194.546082,56.955618 C195.38837,55.7974732 196.090275,54.9025432 196.6518,54.2708278 C196.792181,53.9198748 196.985206,53.5864695 197.230873,53.2706118 C197.47654,52.9547542 197.739754,52.5511583 198.020517,52.0598241 C198.511851,51.7790617 198.704875,51.5333946 198.599589,51.3228229 C198.494303,51.1122511 198.546946,50.866584 198.757518,50.5858216 C198.827709,50.6560122 198.932995,50.6560122 199.073376,50.5858216 C199.354138,50.4454404 199.389233,50.3752498 199.178662,50.3752498 C198.96809,50.3752498 198.897899,50.3401545 198.96809,50.2699639 L199.494519,49.7435345 C199.6349,49.6031533 199.93321,49.2872956 200.389449,48.7959615 C200.845688,48.3046273 201.143998,48.0940555 201.284379,48.1642461 C201.635332,48.0940555 201.863452,48.1291508 201.968738,48.269532 C202.074024,48.4099132 202.231952,48.5853897 202.442524,48.7959615 C202.723287,48.5151991 202.898763,48.5151991 202.968954,48.7959615 C203.039144,49.0767238 203.390097,49.2522003 204.021813,49.3223909 C204.232384,48.9012474 204.478051,48.5853897 204.758814,48.3748179 C204.758814,48.5151991 204.793909,48.5853897 204.8641,48.5853897 L204.969386,48.5853897 L204.548242,50.1646781 C204.618433,50.3752498 204.653528,50.6209169 204.653528,50.9016793 C205.004481,50.7612981 205.144862,50.6384646 205.074672,50.5331787 C205.004481,50.4278928 205.179957,50.3050592 205.601101,50.1646781 C205.53091,50.4454404 205.46072,50.6384646 205.390529,50.7437505 C205.320339,50.8490363 205.285243,51.0420605 205.285243,51.3228229 C205.425624,51.6035852 205.46072,51.7966094 205.390529,51.9018953 C205.320339,52.0071812 205.355434,52.1300147 205.495815,52.2703959 L205.074672,53.5338266 C204.93429,53.9549701 204.793909,54.3410184 204.653528,54.6919714 C204.442956,55.1131149 204.109551,55.7272826 203.653312,56.5344745 C203.197073,57.3416663 202.705739,58.2015011 202.179309,59.1139788 C201.65288,60.0264565 201.143998,60.8862913 200.652664,61.6934831 C200.16133,62.500675 199.775282,63.1148427 199.494519,63.5359862 C199.213757,63.8869392 198.845256,64.3782734 198.389017,65.0099887 C197.932779,65.6417041 197.458992,66.3260624 196.967658,67.0630636 C196.476324,67.8000648 195.98499,68.5019708 195.493655,69.1687814 C195.002321,69.8355921 194.546082,70.3795692 194.124939,70.8007127 C193.212461,71.783381 192.563198,72.5028346 192.17715,72.9590735 C191.791102,73.4153124 191.475244,73.8013606 191.229577,74.1172183 C190.98391,74.433076 190.703147,74.7840289 190.38729,75.1700772 C190.071432,75.5561255 189.56255,76.1351979 188.860644,76.9072944 C187.667404,77.8899627 186.403973,78.8901787 185.070352,79.9079423 C183.736731,80.9257059 182.368014,81.8381837 180.964202,82.6453755 C179.560391,83.4525673 178.086388,84.1018303 176.542195,84.5931645 C174.998002,85.0844986 173.453809,85.2950704 171.909616,85.2248798 C169.382754,85.1546892 167.575347,84.4703309 166.487392,83.1718049 C165.399438,81.8732789 164.767723,80.2939906 164.592246,78.4339398 C164.565457,78.1499754 164.545621,77.8643751 164.532737,77.577139 C164.257759,77.8469396 163.979286,78.1149923 163.697316,78.3812969 C163.346363,78.5216781 163.135792,78.6620593 163.065601,78.8024405 C162.99541,79.223584 162.855029,79.4867987 162.644457,79.5920846 L161.907456,79.9605853 C161.696884,80.0307759 161.521408,80.1536094 161.381027,80.3290859 C161.240645,80.5045624 161.100264,80.6624912 160.959883,80.8028724 C160.257977,81.3643971 159.573619,81.8557313 158.906808,82.2768749 C158.239998,82.6980184 157.520544,83.1893526 156.748447,83.7508773 C156.397494,83.9614491 155.958803,84.1544733 155.432374,84.3299497 C154.905944,84.5054262 154.326872,84.6282598 153.695157,84.6984504 C153.063441,84.768641 152.466821,84.8388316 151.905296,84.9090221 C151.343772,84.9792127 150.852438,85.014308 150.431294,85.014308 L148.009718,85.014308 C147.237622,85.014308 146.535716,84.7335457 145.904001,84.1720209 L144.745856,83.119162 C143.903569,82.5576372 143.342044,81.8030884 143.061282,80.8555153 C142.780519,79.9079423 142.569947,78.9428216 142.429566,77.9601533 C142.289185,77.1880568 142.218994,76.3984126 142.218994,75.5912208 C142.218994,74.7840289 142.289185,73.9943848 142.429566,73.2222882 C142.640138,71.6780952 142.973543,70.186545 143.429782,68.7476378 C143.886021,67.3087307 144.394903,65.7820852 144.956428,64.1677016 C145.939096,61.2196966 146.991955,58.6226446 148.115004,56.3765456 C149.238054,54.1304466 150.53658,51.8843476 152.010582,49.6382486 C152.642298,48.7257709 153.151179,47.7781979 153.537228,46.7955295 C153.923276,45.8128612 154.011014,45.1285029 153.800442,44.7424547 C153.589871,44.3564064 152.975703,44.4441446 151.957939,45.0056694 C150.940176,45.5671941 149.34334,46.9359107 147.167431,49.1118191 C146.886669,49.3925815 146.465525,49.8488204 145.904001,50.4805357 C145.342476,51.1122511 144.780951,51.7966094 144.219426,52.5336106 C143.657902,53.2706118 143.096377,53.9900654 142.534852,54.6919714 L141.271421,56.2712597 C138.955132,59.1490741 137.200367,61.8163167 136.007127,64.2729875 C135.515793,64.9748934 135.182387,65.6417041 135.006911,66.2734194 C134.831434,66.9051348 134.56822,67.5368501 134.217267,68.1685654 C134.006695,68.6598996 133.883861,68.940662 133.848766,69.0108526 C133.813671,69.0810432 133.813671,69.0810432 133.848766,69.0108526 C133.883861,68.940662 133.901409,68.9231143 133.901409,68.9582096 C133.901409,68.9933049 133.796123,69.2565197 133.585551,69.7478538 C133.304789,70.1689974 133.094217,70.5199504 132.953836,70.8007127 C132.813455,71.0814751 132.708169,71.3622375 132.637978,71.6429999 C132.567788,71.9237622 132.497597,72.2220723 132.427407,72.5379299 C132.357216,72.8537876 132.25193,73.2573835 132.111549,73.7487177 C131.690405,74.380433 131.286809,75.0998866 130.900761,75.9070784 C130.514713,76.7142703 130.251498,77.5039145 130.111117,78.276011 C129.970736,78.8375358 129.760164,79.3464176 129.479402,79.8026564 C129.198639,80.2588953 129.058258,80.8028724 129.058258,81.4345877 C128.917877,81.9961125 128.777496,82.2768749 128.637115,82.2768749 C128.496733,82.2768749 128.286162,82.4172561 128.005399,82.6980184 C127.514065,83.0489714 127.285946,83.3999244 127.321041,83.7508773 C127.356136,84.1018303 127.128017,84.3474974 126.636683,84.4878786 C125.443442,84.9090221 124.250202,85.1195939 123.056962,85.1195939 C121.863722,85.1195939 120.881054,84.6282598 120.108957,83.6455915 C119.898386,83.2946385 119.705361,83.0489714 119.529885,82.9085902 C119.354408,82.768209 119.091194,82.5225419 118.740241,82.171589 C118.59986,81.9610172 118.459478,81.6276119 118.319097,81.171373 C118.178716,80.7151341 118.143621,80.4168241 118.213811,80.2764429 C118.284002,79.8552994 118.284002,79.3639652 118.213811,78.8024405 C118.143621,78.6620593 118.178716,78.4865828 118.319097,78.276011 C118.459478,78.0654392 118.564764,77.7846768 118.634955,77.4337239 C118.775336,76.6616273 118.950813,75.9070784 119.161384,75.1700772 C119.371956,74.433076 119.617623,73.6785271 119.898386,72.9064306 C120.45991,71.3622375 121.003887,69.8531397 121.530317,68.3791372 C122.056746,66.9051348 122.600723,65.3609417 123.162248,63.746558 C123.864154,61.7812214 124.460774,60.1141948 124.952108,58.7454782 C125.443442,57.3767616 125.899681,56.0782356 126.320825,54.8499002 C126.741968,53.6215648 127.18066,52.3405865 127.636899,51.0069652 C128.093137,49.6733439 128.67221,48.0589602 129.374116,46.1638142 L131.795691,39.6360889 L134.217267,32.8977919 C134.919173,30.9324553 135.585983,29.2829763 136.217699,27.949355 C136.849414,26.6157337 137.446034,25.1768265 138.007559,23.6326335 L139.060418,20.5793426 C139.27099,20.0178179 139.464014,19.5440314 139.63949,19.1579831 C139.814967,18.7719348 139.9378,18.5087201 140.007991,18.3683389 C140.358944,17.4558612 140.622158,16.7539553 140.797635,16.2626211 C140.973111,15.7712869 141.13104,15.1395716 141.271421,14.3674751 C141.411803,14.0165221 141.622374,13.5602832 141.903137,12.9987585 C142.183899,12.4372337 142.464662,12.0160902 142.745424,11.7353278 C143.026186,11.4545654 143.359592,11.226446 143.74564,11.0509695 C144.131688,10.875493 144.500189,10.7175642 144.851142,10.577183 C145.202095,10.4368018 145.816262,10.3841588 146.693645,10.4192541 C147.571027,10.4543494 148.22029,10.5069924 148.641434,10.577183 C149.273149,10.6473736 149.817126,10.9105883 150.273365,11.3668272 C150.729604,11.823066 151.1332,12.2968525 151.484153,12.7881867 L152.115868,13.9463315 C152.256249,14.2270939 152.361535,14.4903086 152.431726,14.7359757 C152.501917,14.9816428 152.537012,15.2799528 152.537012,15.6309057 L152.537012,16.1573352 C152.537012,16.5784788 152.431726,17.0347176 152.221154,17.5260518 L151.378867,19.5264837 C151.238486,19.8774367 151.080557,20.2283897 150.90508,20.5793426 C150.729604,20.9302956 150.571675,21.2812486 150.431294,21.6322015 L149.167863,24.8960642 C148.81691,25.7383513 148.483505,26.6157337 148.167647,27.5282115 C147.85179,28.4406892 147.518384,29.3531669 147.167431,30.2656446 C146.95686,30.89736 146.763835,31.2834082 146.588359,31.4237894 C146.412882,31.5641706 146.219858,31.9502189 146.009287,32.5819342 C145.658334,33.5646025 145.289833,34.5121756 144.903785,35.4246533 C144.517736,36.337131 144.149236,37.1794181 143.798283,37.9515147 C143.026186,39.9870419 142.341828,41.6891638 141.745208,43.0578804 C141.148588,44.426597 140.850278,45.1460506 140.850278,45.2162412 C140.709897,45.6373847 140.569516,46.023433 140.429134,46.374386 L140.007991,47.6378167 C140.078181,47.6378167 140.218563,47.5325308 140.429134,47.321959 C140.639706,47.1113872 140.867826,46.8657201 141.113493,46.5849578 C141.35916,46.3041954 141.569731,46.0409807 141.745208,45.7953136 C141.920684,45.5496465 142.043518,45.3917177 142.113709,45.3215271 C142.745424,44.4792399 143.482425,43.5843099 144.324712,42.6367368 C145.166999,41.6891638 146.009287,40.7942337 146.851574,39.9519466 C147.693861,39.1096595 148.501053,38.3551106 149.273149,37.6883 C150.045246,37.0214893 150.676961,36.5477028 151.168295,36.2669404 C152.572107,35.4246533 153.431942,34.9157715 153.7478,34.740295 C154.063657,34.5648185 154.537444,34.4068897 155.169159,34.2665085 C155.730684,34.1261273 156.186923,34.0208414 156.537876,33.9506508 C156.888829,33.8804602 157.415258,33.9155555 158.117164,34.0559367 C158.678689,34.1963179 159.398142,34.3366991 160.275525,34.4770803 C161.152907,34.6174615 161.767075,34.8982238 162.118028,35.3193674 C162.819934,36.0212733 163.469197,36.7758222 164.065817,37.5830141 C164.662437,38.3902059 165.030938,39.3553266 165.171319,40.4783761 L165.171319,41.8470927 C165.030938,43.6720481 164.574699,45.3390747 163.802602,46.8481725 C163.030506,48.3572703 162.3286,49.6733439 161.696884,50.7963934 C160.994978,51.9896335 160.398358,53.0249448 159.907024,53.9023272 C159.41569,54.7797096 158.959451,55.709735 158.538308,56.6924033 C157.274877,59.1490741 156.116732,61.5881972 155.063873,64.0097727 C154.011014,66.4313482 153.028346,69.3969008 152.115868,72.9064306 C151.975487,73.3275741 151.870201,73.8013606 151.800011,74.3277901 C151.72982,74.8542195 151.764915,75.2929108 151.905296,75.6438637 C152.045678,75.9948167 152.308892,76.2053885 152.694941,76.2755791 C153.080989,76.3457697 153.695157,76.1351979 154.537444,75.6438637 C154.958587,75.4332919 155.555207,74.9770531 156.327304,74.2751471 C157.0994,73.5732412 157.871497,72.8011447 158.643593,71.9588575 C159.41569,71.1165704 160.135144,70.3093786 160.801954,69.537282 C161.468765,68.7651855 161.977647,68.1685654 162.3286,67.7474219 L167.592894,61.3249825 C168.014038,60.6932672 168.540467,59.9387183 169.172183,59.0613359 C169.344975,58.8213464 169.517767,58.5787313 169.69056,58.3334903 Z M70.098159,26.2647808 L72.5197345,23.0009181 C72.5197345,23.2114899 72.4495439,23.5624429 72.3091627,24.053777 C72.1687815,24.5451112 72.0284003,25.053993 71.8880192,25.5804225 C71.747638,26.1068519 71.6072568,26.5806384 71.4668756,27.001782 C71.3264944,27.4229256 71.2212085,27.6685926 71.1510179,27.7387832 C70.8000649,28.9320233 70.4315643,30.1252634 70.0455161,31.3185035 C69.6594678,32.5117436 69.2909672,33.7049837 68.9400142,34.8982238 C68.3784894,35.8808922 67.9397982,36.8460128 67.6239406,37.7935858 C67.3080829,38.7411589 66.9746776,39.7062795 66.6237246,40.6889478 C66.1323904,42.1629503 65.5884133,43.5492146 64.9917933,44.8477406 C64.3951732,46.1462665 63.8862914,47.5325308 63.4651479,49.0065333 C63.2545761,49.568058 62.9738137,50.2699639 62.6228607,51.1122511 C62.2719078,51.9545382 61.8507642,53.0073971 61.35943,54.2708278 C59.464284,54.4813996 57.7621621,54.6919714 56.2530643,54.9025432 C54.7439665,55.1131149 53.1120352,55.2534961 51.3572704,55.3236867 C51.4976516,55.1833055 51.5678422,55.007829 51.5678422,54.7972573 C51.5678422,54.5866855 51.6380328,54.411209 51.7784139,54.2708278 C52.971654,52.3756818 54.1999894,50.3927975 55.4634201,48.322175 C56.7268508,46.2515524 57.9902815,44.373954 59.2537122,42.6893798 C60.4469523,40.9346149 61.4822636,39.2149454 62.359646,37.5303711 C63.2370284,35.8457969 64.2723397,34.1612226 65.4655798,32.4766483 C66.0972951,31.7045518 66.6763675,30.9149076 67.202797,30.1077158 C67.7292265,29.300524 68.3082989,28.5108798 68.9400142,27.7387832 C69.0102048,27.598402 69.150586,27.3878303 69.3611578,27.1070679 C69.5717296,26.8263055 69.8173966,26.5455431 70.098159,26.2647808 Z M103.789644,12.5776149 C104.000216,12.8583773 104.175692,12.9285679 104.316074,12.7881867 C104.807408,12.5776149 105.123265,12.1915666 105.263647,11.6300419 C105.333837,11.1387077 105.68479,10.8930406 106.316506,10.8930406 C106.597268,10.9632312 106.772744,11.2088983 106.842935,11.6300419 L108.738081,11.1036124 C109.369796,10.9632312 109.79094,11.1387077 110.001512,11.6300419 C110.282274,11.8406137 110.422655,12.1564713 110.422655,12.5776149 C110.492846,12.5074243 110.580584,12.472329 110.68587,12.472329 C110.791156,12.472329 110.878894,12.4021384 110.949085,12.2617572 C111.019275,12.5425196 111.194752,12.823282 111.475514,13.1040444 C111.756277,13.3848067 112.037039,13.5953785 112.317801,13.7357597 C112.458183,14.0867127 112.528373,14.5429515 112.528373,15.1044763 C112.458183,16.2275258 112.142325,17.2979324 111.5808,18.315696 C111.019275,19.3334596 110.668322,20.3336756 110.527941,21.3163439 C110.457751,21.8778686 110.264726,22.4042981 109.948869,22.8956322 C109.633011,23.3869664 109.404892,23.8783006 109.264511,24.3696347 C108.983748,25.2119218 108.790724,25.7383513 108.685438,25.9489231 C108.580152,26.1594949 108.387128,26.650829 108.106366,27.4229256 C107.965985,27.5633067 107.825603,27.7563309 107.685222,28.001998 C107.544841,28.247665 107.439555,28.4406892 107.369364,28.5810704 C107.158793,29.3531669 106.948221,29.9322393 106.737649,30.3182876 C106.527077,30.7043358 106.351601,31.0728365 106.21122,31.4237894 C106.070838,31.7747424 105.895362,32.143243 105.68479,32.5292913 C105.474218,32.9153396 105.263647,33.4593167 105.053075,34.1612226 C104.982884,34.3016038 104.860051,34.5823662 104.684574,35.0035097 C104.509098,35.4246533 104.316074,35.8633445 104.105502,36.3195834 C103.89493,36.7758222 103.701906,37.2145134 103.526429,37.635657 C103.350953,38.0568006 103.228119,38.3375629 103.157929,38.4779441 C103.228119,38.6183253 103.386048,38.58323 103.631715,38.3726582 C103.877382,38.1620865 104.035311,38.0568006 104.105502,38.0568006 C104.456455,37.8462288 105.000432,37.4075376 105.737433,36.7407269 C106.474434,36.0739163 107.088602,35.6703204 107.579936,35.5299392 C108.492414,35.1087956 109.439987,34.7578426 110.422655,34.4770803 C111.405324,34.1963179 112.458183,34.0559367 113.581232,34.0559367 L114.423519,34.0559367 C115.265806,34.2665085 115.967712,34.4946279 116.529237,34.740295 C117.090762,34.9859621 117.827763,35.4246533 118.740241,36.0563686 C120.354624,37.1794181 121.442579,38.6534206 122.004103,40.4783761 C122.565628,42.3033315 122.7762,44.128287 122.635819,45.9532424 L122.425247,49.7435345 C122.425247,50.6560122 122.337509,51.515847 122.162032,52.3230388 C121.986556,53.1302307 121.758436,53.9198748 121.477674,54.6919714 C120.144053,58.903407 118.459478,62.7463421 116.423951,66.2207765 C114.388424,69.6952109 111.791372,72.9064306 108.632795,75.8544355 C107.579936,76.8371038 106.491982,77.8022245 105.368933,78.7497975 C104.245883,79.6973705 103.052643,80.5923006 101.789212,81.4345877 C100.806544,82.0663031 99.7712327,82.6629231 98.6832785,83.2244479 C97.5953243,83.7859726 96.5249177,84.2422115 95.4720588,84.5931645 C94.3490093,84.7335457 93.2786027,84.8563792 92.2608391,84.9616651 C91.2430755,85.066951 90.1375736,84.9441174 88.9443335,84.5931645 C88.7337617,84.4527833 88.5758329,84.3825927 88.470547,84.3825927 C88.3652611,84.3825927 88.172237,84.3474974 87.8914746,84.2773068 C86.2069004,83.8561632 84.9083744,83.0840667 83.9958966,81.9610172 C83.5045625,81.5398736 83.1360619,81.0134442 82.8903948,80.3817288 C82.6447277,79.7500135 82.4517036,79.1182981 82.3113224,78.4865828 C81.7497976,76.380865 81.5392258,74.3102424 81.679607,72.2747152 C81.7497976,71.0814751 81.8199882,70.0286162 81.8901788,69.1161385 C81.9603694,68.2036607 82.1709412,67.2560877 82.5218942,66.2734194 C82.6622754,66.1330382 82.679823,65.9400141 82.5745371,65.694347 C82.4692512,65.4486799 82.4166083,65.2556558 82.4166083,65.1152746 C82.4166083,64.694131 82.381513,64.2554398 82.3113224,63.799201 C82.2411318,63.3429621 82.4867989,62.5182226 83.0483236,61.3249825 C82.978133,60.9740295 83.1360619,60.4476001 83.5221101,59.7456942 C83.9081584,59.0437882 84.2064684,58.5173588 84.4170402,58.1664058 L85.4698991,54.6919714 L85.6804709,54.060256 C86.5929486,52.6564441 87.3825928,51.1999893 88.0494035,49.6908915 C88.7162141,48.1817938 89.3303818,46.6551483 89.8919065,45.1109553 C90.8745749,42.9350469 91.7519573,40.829329 92.5240538,38.7938018 C92.8048162,38.1620865 93.015388,37.6707523 93.1557692,37.3197993 C93.2961504,36.9688464 93.4365316,36.6705363 93.5769127,36.4248693 C93.7172939,36.1792022 93.8576751,35.8808922 93.9980563,35.5299392 C94.1384375,35.1789862 94.3490093,34.6876521 94.6297717,34.0559367 C94.910534,33.143459 95.1912964,32.3362671 95.4720588,31.6343612 C95.7528212,30.9324553 96.0160359,30.248097 96.261703,29.5812863 C96.50737,28.9144757 96.7705848,28.247665 97.0513471,27.5808544 C97.3321095,26.9140438 97.6479672,26.1243996 97.9989202,25.2119218 C98.4902543,24.2292535 98.9113979,23.2114899 99.2623509,22.158631 L100.31521,19.0000543 C100.455591,18.6491013 100.595972,18.3507913 100.736353,18.1051242 C100.876735,17.8594571 101.017116,17.5611471 101.157497,17.2101941 C101.297878,16.8592411 101.543545,16.4907405 101.894498,16.1046923 C102.245451,15.718644 102.456023,15.3501434 102.526213,14.9991904 C102.596404,14.6482374 102.70169,14.2621892 102.842071,13.8410456 C102.982452,13.419902 103.29831,12.9987585 103.789644,12.5776149 Z M113.686518,47.4272449 C113.89709,47.0762919 113.914637,46.6902436 113.739161,46.2691001 C113.563684,45.8479565 113.405756,45.4619082 113.265374,45.1109553 C112.633659,44.1984776 111.931753,43.777334 111.159657,43.8475246 C110.808704,43.9879058 110.352465,44.128287 109.79094,44.2686681 C107.965985,45.2513365 106.21122,46.4270289 104.526645,47.7957455 C102.842071,49.1644621 101.403164,50.866584 100.209924,52.9021112 C99.9291615,53.2530642 99.6483991,53.5864695 99.3676368,53.9023272 C99.0868744,54.2181849 98.806112,54.5515902 98.5253496,54.9025432 C97.9638249,55.6746397 97.4373954,56.5871174 96.9460613,57.6399763 C96.8056801,57.9909293 96.5775606,58.3594299 96.261703,58.7454782 C95.9458453,59.1315265 95.7177259,59.5702177 95.5773447,60.0615518 C95.4369635,60.4826954 95.2790346,60.9213866 95.1035582,61.3776255 C94.9280817,61.8338643 94.6999622,62.2725555 94.4191999,62.6936991 C94.0682469,63.3254145 93.8050322,63.9044869 93.6295557,64.4309163 C93.4540792,64.9573458 93.0855786,65.4311323 92.5240538,65.8522758 C92.3836726,65.8522758 92.2783867,65.992657 92.2081962,66.2734194 C91.365909,67.8176125 90.8745749,69.537282 90.7341937,71.4324281 C90.5938125,71.783381 90.5938125,72.0816911 90.7341937,72.3273581 C90.8745749,72.5730252 90.9447655,72.83624 90.9447655,73.1170023 C90.9447655,73.6785271 91.3308137,74.0294801 92.1029103,74.1698612 C92.8750068,74.380433 93.5769127,74.4155283 94.2086281,74.2751471 C94.8403434,74.1347659 95.5422494,73.9241942 96.3143459,73.6434318 C97.4373954,73.081907 98.507802,72.3449058 99.5255656,71.4324281 C100.543329,70.5199504 101.543545,69.6074726 102.526213,68.6949949 C104.42136,66.8700395 106.105934,64.8520599 107.579936,62.6410562 C109.053939,60.4300524 110.317369,58.0962152 111.370228,55.6395444 C111.861563,54.8674479 112.230063,54.0953513 112.47573,53.3232548 C112.721397,52.5511583 112.949517,51.7088711 113.160088,50.7963934 C113.230279,50.2348686 113.335565,49.6733439 113.475946,49.1118191 C113.616327,48.5502944 113.686518,47.9887696 113.686518,47.4272449 Z M185.596782,38.8990877 C185.035257,38.9692783 184.56147,38.9868259 184.175422,38.9517306 C183.789374,38.9166353 183.350683,38.7236112 182.859348,38.3726582 C182.297824,38.2322771 181.824037,37.933967 181.437989,37.4777282 C181.051941,37.0214893 180.788726,36.5477028 180.648345,36.0563686 C180.507964,35.5650345 180.437773,35.091248 180.437773,34.6350091 C180.437773,34.1787702 180.402678,33.740079 180.332487,33.3189355 C180.332487,32.8276013 180.507964,32.3362671 180.858917,31.844933 C180.999298,31.49398 181.244965,31.1605747 181.595918,30.844717 C181.946871,30.5288594 182.332919,30.195454 182.754063,29.8445011 C182.894444,29.8445011 182.99973,29.8094058 183.06992,29.7392152 C183.140111,29.6690246 183.280492,29.598834 183.491064,29.5286434 C184.26316,29.3180716 185.000162,29.1425951 185.702068,29.0022139 C186.403973,28.8618327 187.211165,28.8267374 188.123643,28.896928 C189.316883,29.1776904 190.211813,29.9497869 190.808433,31.2132176 C191.405053,32.4766483 191.633173,33.5646025 191.492792,34.4770803 C191.422601,34.6174615 191.35241,34.7753903 191.28222,34.9508668 C191.212029,35.1263433 191.176934,35.3193674 191.176934,35.5299392 C191.036553,36.0914639 190.773338,36.5652504 190.38729,36.9512987 C190.001241,37.337347 189.56255,37.7058476 189.071216,38.0568006 C188.509691,38.1971818 187.948167,38.4077535 187.386642,38.6885159 C186.825117,38.9692783 186.228497,39.0394689 185.596782,38.8990877 Z" id="abhi"></path>
        </g>
    </g>
</svg>